<svg id="SvgjsSvg1001" width="288" height="288" xmlns="http://www.w3.org/2000/svg" version="1.1" xmlns:xlink="http://www.w3.org/1999/xlink" xmlns:svgjs="http://svgjs.com/svgjs"><defs id="SvgjsDefs1002"></defs><g id="SvgjsG1008"><svg xmlns="http://www.w3.org/2000/svg" enable-background="new 0 0 3000 3000" viewBox="0 0 3000 3000" width="288" height="288"><linearGradient id="a" x1="1536.355" x2="2577.151" y1="1536.354" y2="2577.151" gradientUnits="userSpaceOnUse"><stop offset="0" stop-color="#ffffff" class="stopColor00b588 svgShape"></stop><stop offset=".363" stop-color="#ffffff" class="stopColor00b98b svgShape"></stop><stop offset=".713" stop-color="#ffffff" class="stopColor00c493 svgShape"></stop><stop offset="1" stop-color="#ffffff" class="stopColor00d49f svgShape"></stop></linearGradient><path fill="url(#a)" d="M3000,1500c0,828.4-671.6,1500-1500,1500c-104.3,0-206.2-10.6-304.5-30.9
	l-631.9-631.9L2436.4,662.8l532.7,532.7C2989.4,1293.8,3000,1395.7,3000,1500z" display="none"></path><path fill="#2f6578" d="M3000,1500c0,828.4-671.6,1500-1500,1500c-104.3,0-206.2-10.6-304.5-30.9C513.1,2828.4,0,2224.1,0,1500
		C0,671.6,671.6,0,1500,0c724.1,0,1328.4,513.1,1469.1,1195.5C2989.4,1293.8,3000,1395.7,3000,1500z" class="color00D49F svgShape"></path><rect width="1872.7" height="1674.4" x="603.2" y="702.3" fill="#3e9bbb" class="color00A87E svgShape"></rect><rect width="1872.7" height="1674.4" x="524.1" y="623.3" fill="#4a4144" class="color4A4144 svgShape"></rect><rect width="1872.7" height="232.3" x="524.1" y="623.3" fill="#2e282b" class="color2E282B svgShape"></rect><circle cx="668.2" cy="739.4" r="33" fill="#ff363e" class="colorFF363E svgShape"></circle><circle cx="770.2" cy="739.4" r="33" fill="#ffdf21" class="colorFFDF21 svgShape"></circle><circle cx="872.2" cy="739.4" r="33" fill="#3cffa1" class="color3CFFA1 svgShape"></circle><path fill="#3b3436" d="M1241.8 1418.7L1093 1576l148.7 155.4-64.3 67.2L966.4 1576l211.1-223.5L1241.8 1418.7zM1707.1 1232.6l-314.7 672.5h-111.3l311.8-672.5H1707.1zM1815.5 1352.5l211.1 223.5-211.1 222.6-64.3-67.2 148.7-155.4-148.7-157.3L1815.5 1352.5z" class="color3B3436 svgShape"></path><g fill="#000000" class="color000 svgShape"><path fill="#6028d0" d="M1205.8 1378.1L1057 1535.4l148.7 155.4-64.3 67.2-211.1-222.6 211.1-223.5L1205.8 1378.1zM1671.1 1192l-314.7 672.5h-111.3l311.8-672.5H1671.1zM1779.5 1311.9l211.1 223.5L1779.5 1758l-64.3-67.2 148.7-155.4-148.7-157.3L1779.5 1311.9z" class="color8DC63F svgShape"></path></g></svg></g></svg>