<svg id="visual" viewBox="0 0 900 300" width="900" height="300" xmlns="http://www.w3.org/2000/svg" xmlns:xlink="http://www.w3.org/1999/xlink" version="1.1"><path d="M0 222L21.5 217.7C43 213.3 86 204.7 128.8 196.7C171.7 188.7 214.3 181.3 257.2 185C300 188.7 343 203.3 385.8 204.7C428.7 206 471.3 194 514.2 188C557 182 600 182 642.8 185.5C685.7 189 728.3 196 771.2 199.8C814 203.7 857 204.3 878.5 204.7L900 205L900 301L878.5 301C857 301 814 301 771.2 301C728.3 301 685.7 301 642.8 301C600 301 557 301 514.2 301C471.3 301 428.7 301 385.8 301C343 301 300 301 257.2 301C214.3 301 171.7 301 128.8 301C86 301 43 301 21.5 301L0 301Z" fill="#3e9bbb"></path><path d="M0 201L21.5 204.5C43 208 86 215 128.8 218.7C171.7 222.3 214.3 222.7 257.2 221.5C300 220.3 343 217.7 385.8 214.5C428.7 211.3 471.3 207.7 514.2 204.7C557 201.7 600 199.3 642.8 198.7C685.7 198 728.3 199 771.2 205C814 211 857 222 878.5 227.5L900 233L900 301L878.5 301C857 301 814 301 771.2 301C728.3 301 685.7 301 642.8 301C600 301 557 301 514.2 301C471.3 301 428.7 301 385.8 301C343 301 300 301 257.2 301C214.3 301 171.7 301 128.8 301C86 301 43 301 21.5 301L0 301Z" fill="#3b8daa"></path><path d="M0 233L21.5 233.3C43 233.7 86 234.3 128.8 234.7C171.7 235 214.3 235 257.2 233.2C300 231.3 343 227.7 385.8 228.3C428.7 229 471.3 234 514.2 236.3C557 238.7 600 238.3 642.8 238.8C685.7 239.3 728.3 240.7 771.2 240.7C814 240.7 857 239.3 878.5 238.7L900 238L900 301L878.5 301C857 301 814 301 771.2 301C728.3 301 685.7 301 642.8 301C600 301 557 301 514.2 301C471.3 301 428.7 301 385.8 301C343 301 300 301 257.2 301C214.3 301 171.7 301 128.8 301C86 301 43 301 21.5 301L0 301Z" fill="#378099"></path><path d="M0 267L21.5 264C43 261 86 255 128.8 252C171.7 249 214.3 249 257.2 250.3C300 251.7 343 254.3 385.8 255.5C428.7 256.7 471.3 256.3 514.2 256.5C557 256.7 600 257.3 642.8 259.8C685.7 262.3 728.3 266.7 771.2 267.2C814 267.7 857 264.3 878.5 262.7L900 261L900 301L878.5 301C857 301 814 301 771.2 301C728.3 301 685.7 301 642.8 301C600 301 557 301 514.2 301C471.3 301 428.7 301 385.8 301C343 301 300 301 257.2 301C214.3 301 171.7 301 128.8 301C86 301 43 301 21.5 301L0 301Z" fill="#337288"></path><path d="M0 272L21.5 271C43 270 86 268 128.8 267.2C171.7 266.3 214.3 266.7 257.2 268.5C300 270.3 343 273.7 385.8 272.8C428.7 272 471.3 267 514.2 268.3C557 269.7 600 277.3 642.8 279.2C685.7 281 728.3 277 771.2 274.2C814 271.3 857 269.7 878.5 268.8L900 268L900 301L878.5 301C857 301 814 301 771.2 301C728.3 301 685.7 301 642.8 301C600 301 557 301 514.2 301C471.3 301 428.7 301 385.8 301C343 301 300 301 257.2 301C214.3 301 171.7 301 128.8 301C86 301 43 301 21.5 301L0 301Z" fill="#2f6578"></path></svg>